<svg width="16" height="20" viewBox="0 0 16 20" fill="none" xmlns="http://www.w3.org/2000/svg">
<path d="M10.8358 7.83646C11.2216 7.46646 11.5298 7.02333 11.7425 6.53294C11.9552 6.04254 12.0681 5.5147 12.0746 4.98022C12.0811 4.44573 11.9811 3.9153 11.7804 3.41988C11.5797 2.92445 11.2823 2.47396 10.9057 2.09468C10.529 1.7154 10.0806 1.41493 9.58659 1.21081C9.09258 1.00669 8.56286 0.902992 8.02834 0.905779C7.49382 0.908567 6.9652 1.01778 6.47334 1.22705C5.98148 1.43631 5.53623 1.74144 5.16355 2.12463C4.42763 2.8813 4.01835 3.89674 4.02386 4.95225C4.02936 6.00775 4.44921 7.01887 5.19298 7.76782C5.93675 8.51678 6.94492 8.94364 8.00037 8.95648C9.05581 8.96932 10.0741 8.5671 10.8358 7.83646V7.83646Z" stroke="#8F72E0" stroke-opacity="0.62" stroke-width="1.8" stroke-linecap="round" stroke-linejoin="round"/>
<path d="M2.98612 14.0709C3.97475 13.089 5.23236 12.4224 6.5999 12.1553C7.96743 11.8881 9.38347 12.0326 10.6689 12.5703C11.9544 13.108 13.0515 14.0148 13.8215 15.1761C14.5916 16.3374 14.9999 17.7009 14.995 19.0943L0.905739 19.0453C0.908887 18.1202 1.09423 17.2047 1.45118 16.3512C1.80813 15.4977 2.32971 14.7229 2.98612 14.0709V14.0709Z" stroke="#8F72E0" stroke-opacity="0.62" stroke-width="1.8" stroke-linecap="round" stroke-linejoin="round"/>
</svg>
