<svg width="27" height="27" viewBox="0 0 27 27" fill="none" xmlns="http://www.w3.org/2000/svg">
<g opacity="0.5">
<path fill-rule="evenodd" clip-rule="evenodd" d="M7.92957 3.39058C8.92383 3.39417 9.88875 3.72792 10.6727 4.33941C11.4567 4.9509 12.0154 5.8055 12.261 6.76896L21.3711 6.80061L21.3633 9.04281L12.2532 9.01116C11.9741 10.0646 11.3211 10.9804 10.4161 11.5876C9.51116 12.1948 8.41614 12.4519 7.33553 12.3108C6.25491 12.1698 5.26258 11.6402 4.54381 10.8211C3.82504 10.0019 3.42899 8.94917 3.42959 7.85939C3.43373 6.67006 3.91015 5.53108 4.75406 4.69301C5.59797 3.85495 6.74023 3.38645 7.92957 3.39058ZM7.9062 10.1172C8.50087 10.1192 9.072 9.88498 9.49395 9.46595C9.91591 9.04692 10.1541 8.47743 10.1562 7.88276C10.1582 7.28809 9.924 6.71696 9.50497 6.29501C9.08593 5.87305 8.51644 5.63484 7.92178 5.63278C7.32711 5.63071 6.75598 5.86496 6.33402 6.28399C5.91207 6.70302 5.67386 7.27251 5.67179 7.86718C5.66973 8.46185 5.90397 9.03298 6.32301 9.45494C6.74204 9.87689 7.31153 10.1151 7.9062 10.1172Z" fill="#111111"/>
<path fill-rule="evenodd" clip-rule="evenodd" d="M19.0744 22.4882C18.0801 22.4846 17.1152 22.1509 16.3312 21.5394C15.5472 20.9279 14.9886 20.0733 14.743 19.1098L5.63291 19.0782L5.6407 16.836L14.7507 16.8676C15.0299 15.8142 15.6829 14.8984 16.5879 14.2912C17.4928 13.684 18.5878 13.4269 19.6684 13.568C20.7491 13.709 21.7414 14.2386 22.4602 15.0577C23.1789 15.8769 23.575 16.9296 23.5744 18.0194C23.5702 19.2087 23.0938 20.3477 22.2499 21.1858C21.406 22.0238 20.2637 22.4923 19.0744 22.4882ZM19.0822 20.246C19.6769 20.2481 20.248 20.0138 20.6699 19.5948C21.0919 19.1758 21.3301 18.6063 21.3322 18.0116C21.3342 17.4169 21.1 16.8458 20.681 16.4238C20.2619 16.0019 19.6924 15.7637 19.0978 15.7616C18.5031 15.7595 17.932 15.9938 17.51 16.4128C17.0881 16.8319 16.8499 17.4014 16.8478 17.996C16.8457 18.5907 17.08 19.1618 17.499 19.5838C17.918 20.0057 18.4875 20.2439 19.0822 20.246Z" fill="#111111"/>
</g>
</svg>
