<svg width="24" height="24" viewBox="0 0 24 24" fill="none" xmlns="http://www.w3.org/2000/svg">
<path d="M15.422 14.443C15.2299 14.2683 14.9774 14.1752 14.7178 14.1832C14.4583 14.1912 14.212 14.2998 14.031 14.486L11.638 16.947C11.062 16.837 9.90404 16.476 8.71204 15.287C7.52004 14.094 7.15904 12.933 7.05204 12.361L9.51104 9.96699C9.69745 9.78612 9.80617 9.53982 9.8142 9.2802C9.82223 9.02059 9.72892 8.76804 9.55404 8.57599L5.85904 4.51299C5.68408 4.32035 5.44092 4.2035 5.18119 4.18725C4.92146 4.17101 4.66564 4.25665 4.46804 4.42599L2.29804 6.28699C2.12515 6.46051 2.02196 6.69145 2.00804 6.93599C1.99304 7.18599 1.70704 13.108 6.29904 17.702C10.305 21.707 15.323 22 16.705 22C16.907 22 17.031 21.994 17.064 21.992C17.3086 21.9783 17.5394 21.8747 17.712 21.701L19.572 19.53C19.7415 19.3325 19.8273 19.0768 19.8113 18.817C19.7952 18.5573 19.6785 18.3141 19.486 18.139L15.422 14.443Z" fill="white"/>
<path d="M21 6H18V3H16V6H13V8H16V11H18V8H21V6Z" fill="white"/>
</svg>
