<svg width="16" height="20" viewBox="0 0 16 20" fill="none" xmlns="http://www.w3.org/2000/svg">
<path d="M10.8096 7.83627C11.1945 7.46448 11.5016 7.01975 11.7128 6.52802C11.924 6.0363 12.0352 5.50743 12.0399 4.97228C12.0445 4.43712 11.9425 3.9064 11.7399 3.41108C11.5372 2.91576 11.238 2.46576 10.8595 2.08734C10.4811 1.70891 10.0311 1.40964 9.53579 1.20699C9.04047 1.00434 8.50975 0.902365 7.9746 0.907015C7.43944 0.911665 6.91057 1.02285 6.41885 1.23408C5.92713 1.44531 5.48239 1.75235 5.1106 2.13729C4.37644 2.89743 3.9702 3.91552 3.97938 4.97228C3.98856 6.02903 4.41243 7.03991 5.1597 7.78717C5.90697 8.53444 6.91784 8.95831 7.9746 8.9675C9.03135 8.97668 10.0494 8.57044 10.8096 7.83627V7.83627Z" stroke="#808080" stroke-width="1.8" stroke-linecap="round" stroke-linejoin="round"/>
<path d="M2.97232 14.1055C3.95872 13.119 5.21553 12.4472 6.58378 12.175C7.95203 11.9028 9.37027 12.0425 10.6591 12.5764C11.948 13.1103 13.0496 14.0144 13.8246 15.1744C14.5996 16.3343 15.0132 17.6981 15.0131 19.0932H0.90674C0.906673 18.1669 1.08905 17.2497 1.44347 16.3939C1.79788 15.5381 2.31738 14.7605 2.97232 14.1055V14.1055Z" stroke="#808080" stroke-width="1.8" stroke-linecap="round" stroke-linejoin="round"/>
</svg>
