<svg width="20" height="20" viewBox="0 0 20 20" fill="none" xmlns="http://www.w3.org/2000/svg">
<path d="M1.51164 4.95698L1.29614 4.50598C1.38464 4.46398 3.48114 3.46748 5.23114 3.33348C7.11014 3.19648 8.92964 4.14848 9.00564 4.18898L8.77014 4.63048C8.75264 4.62098 7.00364 3.69698 5.26914 3.83248C3.61364 3.95848 1.53264 4.94698 1.51164 4.95698Z" fill="black"/>
<path d="M3.27103 5.9405L1.01953 4.8425L2.47803 2.8385L2.88253 3.1325L1.77453 4.655L3.48953 5.491L3.27103 5.9405Z" fill="black"/>
<path d="M12.6688 19.7188C12.0323 19.7188 11.3868 19.6498 10.8028 19.5198C9.80626 19.2978 7.70976 17.6983 7.26626 17.2388C6.86526 16.8233 5.79126 15.2283 5.63376 13.9308C5.56476 13.3658 5.99826 11.6823 6.52876 11.0833C6.63326 10.9658 6.74276 10.8868 6.85476 10.8478C6.83223 10.7963 6.8094 10.745 6.78626 10.6938C6.44126 9.9428 5.93026 9.0753 5.47926 8.3093C4.71576 7.0123 4.43126 6.4943 4.47926 6.1993C4.55976 5.6993 4.96976 5.1223 5.51576 5.0213L5.61226 5.0018C5.75302 4.96787 5.89701 4.9491 6.04176 4.9458C6.51826 4.9458 6.95476 5.2178 7.41626 5.8013C7.81576 6.3068 8.46276 7.7023 9.00726 8.9648C8.98226 8.6468 8.99176 8.3813 9.05876 8.2263C9.32876 7.5998 10.0818 7.3533 10.3113 7.3388L10.3678 7.3373C10.5133 7.3373 11.2578 7.3738 11.6028 8.0978C11.6578 8.2138 11.7103 8.3388 11.7588 8.4653C11.8208 8.2503 11.9088 8.0628 12.0343 7.9558C12.4203 7.6278 12.9488 7.4578 13.3083 7.5588C13.6948 7.6673 14.0203 8.0763 14.1378 8.6028C14.1883 8.4888 14.2493 8.3963 14.3213 8.3423C14.6708 8.0803 15.2788 8.0523 15.6638 8.3193C16.1338 8.6453 17.2148 10.5983 17.4048 12.3063C17.5603 13.7103 17.7358 16.2193 17.1563 17.2533C16.5543 18.3258 15.3228 19.1588 14.4333 19.4783C14.0003 19.6328 13.3738 19.7188 12.6688 19.7188ZM7.03376 11.3288C6.70176 11.3618 6.05126 13.2218 6.12976 13.8693C6.27076 15.0333 7.27026 16.5223 7.62626 16.8913C8.04976 17.3303 10.0548 18.8403 10.9108 19.0308C11.4603 19.1533 12.0673 19.2183 12.6683 19.2183C13.3078 19.2183 13.8888 19.1408 14.2628 19.0058C14.9353 18.7643 16.1433 18.0328 16.7188 17.0063C17.0928 16.3408 17.1613 14.6468 16.9068 12.3603C16.7263 10.7313 15.6728 8.9333 15.3783 8.7283C15.1418 8.5648 14.7478 8.6448 14.6203 8.7408C14.5498 8.8213 14.4453 9.2923 14.4048 9.7408L14.2793 11.1243L13.9148 9.7838C13.9148 9.7838 13.7528 9.1888 13.6508 8.7173C13.5638 8.3188 13.3418 8.0858 13.1723 8.0388C12.9858 7.9858 12.6113 8.1193 12.3578 8.3353C12.2198 8.4528 12.1173 9.1318 12.1128 9.6668L12.0938 11.7453L11.6193 9.7213C11.6173 9.7123 11.4188 8.8698 11.1513 8.3113C10.9353 7.8583 10.4603 7.8353 10.3678 7.8353C10.2223 7.8453 9.68976 8.0243 9.51776 8.4228C9.39776 8.7023 9.66976 10.1608 9.99026 11.3513L9.51626 11.5073C9.49976 11.4638 7.75726 7.0363 7.02476 6.1098C6.55376 5.5138 6.23876 5.4448 6.04276 5.4448C5.93276 5.4448 5.82676 5.4668 5.71526 5.4903L5.60776 5.5118C5.32676 5.5638 5.03126 5.9223 4.97276 6.2788C4.97726 6.4698 5.49476 7.3488 5.91076 8.0553C6.36726 8.8313 6.88526 9.7108 7.24076 10.4843C7.33126 10.6808 7.41526 10.8853 7.49276 11.0943L7.49376 11.0978C8.03626 11.8453 8.30626 14.3038 8.33576 14.5863L7.83926 14.6438C7.83726 14.6263 7.60826 12.8753 7.05326 11.3473C7.04719 11.3407 7.04068 11.3345 7.03376 11.3288Z" fill="black"/>
</svg>
