<svg width="16" height="20" viewBox="0 0 16 20" fill="none" xmlns="http://www.w3.org/2000/svg">
<g opacity="0.5">
<path d="M10.8094 7.83629C11.1943 7.4645 11.5014 7.01977 11.7126 6.52804C11.9238 6.03632 12.035 5.50745 12.0396 4.97229C12.0443 4.43714 11.9423 3.90642 11.7397 3.41109C11.537 2.91577 11.2377 2.46577 10.8593 2.08734C10.4809 1.70892 10.0309 1.40965 9.53557 1.207C9.04025 1.00434 8.50953 0.902368 7.97437 0.907018C7.43922 0.911668 6.91035 1.02285 6.41862 1.23408C5.9269 1.44531 5.48217 1.75236 5.11037 2.1373C4.3762 2.89744 3.96996 3.91553 3.97914 4.97229C3.98833 6.02905 4.4122 7.03993 5.15947 7.7872C5.90674 8.53447 6.91761 8.95834 7.97437 8.96752C9.03113 8.97671 10.0492 8.57046 10.8094 7.83629V7.83629Z" stroke="black" stroke-width="1.8" stroke-linecap="round" stroke-linejoin="round"/>
<path d="M2.97233 14.1055C3.95874 13.119 5.21554 12.4472 6.5838 12.175C7.95206 11.9028 9.3703 12.0425 10.6592 12.5764C11.948 13.1102 13.0496 14.0143 13.8246 15.1743C14.5997 16.3343 15.0133 17.6981 15.0132 19.0932H0.906743C0.906676 18.1669 1.08906 17.2497 1.44347 16.3939C1.79788 15.5381 2.31739 14.7605 2.97233 14.1055V14.1055Z" stroke="black" stroke-width="1.8" stroke-linecap="round" stroke-linejoin="round"/>
</g>
</svg>
