<svg width="26" height="26" viewBox="0 0 26 26" fill="none" xmlns="http://www.w3.org/2000/svg">
<g opacity="0.5">
<path fill-rule="evenodd" clip-rule="evenodd" d="M17.9019 3.25H8.07717C4.643 3.25 2.1665 6.0255 2.1665 9.59725V16.4028C2.1665 19.9756 4.64409 22.75 8.07717 22.75H17.8922C18.7067 22.7415 19.5109 22.5668 20.2554 22.2365C21 21.9062 21.6693 21.4273 22.2223 20.8293C22.7763 20.2293 23.2034 19.5237 23.4782 18.7547C23.753 17.9857 23.8696 17.1692 23.8213 16.354L23.8234 9.59725C23.8669 8.78977 23.7475 7.9818 23.4724 7.22137C23.1974 6.46094 22.7722 5.76358 22.2223 5.17075C21.6706 4.5736 21.0029 4.09526 20.2601 3.765C19.5172 3.43474 18.7148 3.2595 17.9019 3.25ZM8.07717 4.90533H17.8835C18.4737 4.91236 19.0562 5.03973 19.5955 5.27965C20.1347 5.51957 20.6194 5.867 21.0198 6.30067C21.422 6.73598 21.7322 7.24803 21.9317 7.80612C22.1313 8.36421 22.2161 8.95684 22.1811 9.5485L22.1789 16.4028C22.2188 17.0021 22.1367 17.6033 21.9374 18.1699C21.7382 18.7366 21.426 19.2569 21.0198 19.6993C20.6194 20.133 20.1347 20.4804 19.5955 20.7203C19.0562 20.9603 18.4737 21.0876 17.8835 21.0947H8.07717C5.59309 21.0947 3.80992 19.097 3.80992 16.4028V9.59725C3.80992 6.903 5.59309 4.90642 8.07825 4.90642L8.07717 4.90533ZM19.5258 9.35783C19.4588 9.27312 19.3756 9.20254 19.2811 9.15016C19.1866 9.09777 19.0827 9.06463 18.9753 9.05265C18.8679 9.04066 18.7592 9.05007 18.6555 9.08032C18.5518 9.11058 18.4551 9.16108 18.371 9.22892L13.9293 12.8093L13.8026 12.8993C13.5417 13.0609 13.2374 13.1384 12.931 13.1211C12.6246 13.1039 12.3309 12.9928 12.0898 12.8028L7.61567 9.22783L7.516 9.1585C7.34541 9.05949 7.14478 9.02547 6.95108 9.0627C6.75738 9.09992 6.58366 9.20589 6.46192 9.36108C6.32618 9.5333 6.26391 9.75214 6.28866 9.97002C6.31341 10.1879 6.42318 10.3872 6.59409 10.5246L11.0737 14.105L11.2481 14.2318C11.7978 14.6075 12.453 14.7983 13.1185 14.7762C13.784 14.7542 14.4251 14.5206 14.9488 14.1093L19.398 10.5224L19.4868 10.439C19.6212 10.293 19.6989 10.1039 19.7061 9.90562C19.7132 9.70738 19.6493 9.51311 19.5258 9.35783Z" fill="black"/>
</g>
</svg>
