<svg width="26" height="26" viewBox="0 0 26 26" fill="none" xmlns="http://www.w3.org/2000/svg">
<path fill-rule="evenodd" clip-rule="evenodd" d="M7.58333 3.25C8.54411 3.25013 9.47763 3.56939 10.2373 4.15765C10.9969 4.74591 11.5396 5.56983 11.7802 6.5H20.5833V8.66667H11.7802C11.514 9.68553 10.886 10.5727 10.0136 11.1624C9.14119 11.7522 8.08393 12.0043 7.03926 11.8716C5.99458 11.739 5.03391 11.2306 4.33661 10.4415C3.63932 9.65234 3.25307 8.63639 3.25 7.58333C3.25 6.43406 3.70655 5.33186 4.5192 4.5192C5.33186 3.70655 6.43406 3.25 7.58333 3.25ZM7.58333 9.75C8.15797 9.75 8.70907 9.52173 9.1154 9.1154C9.52173 8.70907 9.75 8.15797 9.75 7.58333C9.75 7.0087 9.52173 6.4576 9.1154 6.05127C8.70907 5.64494 8.15797 5.41667 7.58333 5.41667C7.0087 5.41667 6.4576 5.64494 6.05127 6.05127C5.64494 6.4576 5.41667 7.0087 5.41667 7.58333C5.41667 8.15797 5.64494 8.70907 6.05127 9.1154C6.4576 9.52173 7.0087 9.75 7.58333 9.75Z" fill="#7472E0"/>
<path fill-rule="evenodd" clip-rule="evenodd" d="M18.4167 21.6667C17.456 21.6666 16.5225 21.3473 15.7628 20.759C15.0032 20.1708 14.4605 19.3469 14.2199 18.4167H5.41675V16.25H14.2199C14.4861 15.2312 15.1141 14.344 15.9865 13.7542C16.8589 13.1645 17.9161 12.9124 18.9608 13.0451C20.0055 13.1777 20.9662 13.6861 21.6635 14.4752C22.3608 15.2644 22.747 16.2803 22.7501 17.3334C22.7501 18.4826 22.2935 19.5848 21.4809 20.3975C20.6682 21.2101 19.566 21.6667 18.4167 21.6667ZM18.4167 19.5C18.9914 19.5 19.5425 19.2718 19.9488 18.8654C20.3551 18.4591 20.5834 17.908 20.5834 17.3334C20.5834 16.7587 20.3551 16.2076 19.9488 15.8013C19.5425 15.395 18.9914 15.1667 18.4167 15.1667C17.8421 15.1667 17.291 15.395 16.8847 15.8013C16.4784 16.2076 16.2501 16.7587 16.2501 17.3334C16.2501 17.908 16.4784 18.4591 16.8847 18.8654C17.291 19.2718 17.8421 19.5 18.4167 19.5Z" fill="#7472E0"/>
</svg>
