<svg width="9" height="9" viewBox="0 0 9 9" fill="none" xmlns="http://www.w3.org/2000/svg">
<path fill-rule="evenodd" clip-rule="evenodd" d="M4.5 0C4.73869 0 4.96761 0.0948213 5.1364 0.263604C5.30518 0.432387 5.4 0.661305 5.4 0.9V3.6H8.1C8.33869 3.6 8.56761 3.69482 8.7364 3.8636C8.90518 4.03239 9 4.2613 9 4.5C9 4.73869 8.90518 4.96761 8.7364 5.1364C8.56761 5.30518 8.33869 5.4 8.1 5.4H5.4V8.1C5.4 8.33869 5.30518 8.56761 5.1364 8.7364C4.96761 8.90518 4.73869 9 4.5 9C4.2613 9 4.03239 8.90518 3.8636 8.7364C3.69482 8.56761 3.6 8.33869 3.6 8.1V5.4H0.9C0.661305 5.4 0.432387 5.30518 0.263604 5.1364C0.0948213 4.96761 0 4.73869 0 4.5C0 4.2613 0.0948213 4.03239 0.263604 3.8636C0.432387 3.69482 0.661305 3.6 0.9 3.6H3.6V0.9C3.6 0.661305 3.69482 0.432387 3.8636 0.263604C4.03239 0.0948213 4.2613 0 4.5 0Z" fill="#6551E0"/>
</svg>
