<svg width="14" height="14" viewBox="0 0 14 14" fill="none" xmlns="http://www.w3.org/2000/svg">
<g clip-path="url(#clip0_102_419)">
<path d="M6.3 11.2H7.7V9.8H6.3V11.2ZM7 0C5.61553 0 4.26216 0.410543 3.11101 1.17971C1.95987 1.94888 1.06266 3.04213 0.532846 4.32122C0.00303299 5.6003 -0.13559 7.00777 0.134506 8.36563C0.404603 9.7235 1.07129 10.9708 2.05026 11.9497C3.02922 12.9287 4.2765 13.5954 5.63437 13.8655C6.99224 14.1356 8.39971 13.997 9.67879 13.4672C10.9579 12.9373 12.0511 12.0401 12.8203 10.889C13.5895 9.73785 14 8.38447 14 7C14 6.08075 13.8189 5.1705 13.4672 4.32122C13.1154 3.47194 12.5998 2.70026 11.9498 2.05025C11.2997 1.40024 10.5281 0.884626 9.67879 0.532843C8.82951 0.18106 7.91926 0 7 0ZM7 12.6C5.89243 12.6 4.80973 12.2716 3.88881 11.6562C2.96789 11.0409 2.25013 10.1663 1.82628 9.14303C1.40243 8.11976 1.29153 6.99379 1.50761 5.90749C1.72368 4.8212 2.25703 3.82338 3.04021 3.0402C3.82338 2.25703 4.8212 1.72368 5.9075 1.5076C6.99379 1.29153 8.11976 1.40242 9.14303 1.82627C10.1663 2.25013 11.0409 2.96789 11.6562 3.88881C12.2716 4.80972 12.6 5.89243 12.6 7C12.598 8.48459 12.0073 9.90779 10.9576 10.9575C9.90779 12.0073 8.48459 12.598 7 12.6ZM7 2.8C6.2574 2.8 5.54521 3.095 5.0201 3.6201C4.495 4.1452 4.2 4.85739 4.2 5.6H5.6C5.6 5.2287 5.7475 4.8726 6.01005 4.61005C6.27261 4.3475 6.6287 4.2 7 4.2C7.37131 4.2 7.7274 4.3475 7.98995 4.61005C8.2525 4.8726 8.4 5.2287 8.4 5.6C8.4 7 6.3 6.825 6.3 9.1H7.7C7.7 7.525 9.8 7.35 9.8 5.6C9.8 4.85739 9.505 4.1452 8.9799 3.6201C8.4548 3.095 7.74261 2.8 7 2.8Z" fill="#7472E0"/>
</g>
<defs>
<clipPath id="clip0_102_419">
<rect width="14" height="14" fill="white"/>
</clipPath>
</defs>
</svg>
