<svg width="12" height="9" viewBox="0 0 12 9" fill="none" xmlns="http://www.w3.org/2000/svg">
<path d="M7 3.8C6.71584 3.8 6.44332 3.69464 6.24239 3.50711C6.04145 3.31957 5.92857 3.06522 5.92857 2.8C5.92857 2.53478 6.04145 2.28043 6.24239 2.09289C6.44332 1.90536 6.71584 1.8 7 1.8C7.28416 1.8 7.55668 1.90536 7.75761 2.09289C7.95855 2.28043 8.07143 2.53478 8.07143 2.8C8.07143 2.93132 8.04372 3.06136 7.98987 3.18268C7.93603 3.30401 7.85711 3.41425 7.75761 3.50711C7.65812 3.59997 7.54001 3.67362 7.41002 3.72388C7.28003 3.77413 7.1407 3.8 7 3.8ZM7 0C6.20435 0 5.44129 0.294999 4.87868 0.820101C4.31607 1.3452 4 2.05739 4 2.8C4 4.9 7 8 7 8C7 8 10 4.9 10 2.8C10 2.05739 9.68393 1.3452 9.12132 0.820101C8.55871 0.294999 7.79565 0 7 0Z" fill="#7472E0"/>
</svg>
