<svg width="16" height="16" viewBox="0 0 16 16" fill="none" xmlns="http://www.w3.org/2000/svg">
<path d="M15.8442 6.43313H15.1998V6.39993H7.99991V9.59989H12.5211C11.8615 11.4627 10.0891 12.7999 7.99991 12.7999C5.34914 12.7999 3.19996 10.6507 3.19996 7.99991C3.19996 5.34914 5.34914 3.19996 7.99991 3.19996C9.2235 3.19996 10.3367 3.66156 11.1843 4.41555L13.4471 2.15278C12.0183 0.821191 10.1071 0 7.99991 0C3.58196 0 0 3.58196 0 7.99991C0 12.4179 3.58196 15.9998 7.99991 15.9998C12.4179 15.9998 15.9998 12.4179 15.9998 7.99991C15.9998 7.46352 15.9446 6.93992 15.8442 6.43313Z" fill="#FFC107"/>
<path d="M0.921861 4.27635L3.55023 6.20393C4.26142 4.44315 5.9838 3.19996 7.99938 3.19996C9.22297 3.19996 10.3362 3.66156 11.1837 4.41555L13.4465 2.15278C12.0177 0.821191 10.1066 0 7.99938 0C4.92662 0 2.26185 1.73478 0.921861 4.27635Z" fill="#FF3D00"/>
<path d="M7.99984 16C10.0662 16 11.9438 15.2092 13.3634 13.9232L10.8874 11.8281C10.0842 12.4364 9.08583 12.8 7.99984 12.8C5.91906 12.8 4.15228 11.4733 3.48669 9.62168L0.877916 11.6317C2.2019 14.2224 4.89067 16 7.99984 16Z" fill="#4CAF50"/>
<path d="M15.8442 6.43325H15.1998V6.40005H7.99988V9.60001H12.521C12.2042 10.4948 11.6286 11.2664 10.8862 11.8284C10.8866 11.828 10.887 11.828 10.8874 11.8276L13.3634 13.9228C13.1882 14.082 15.9998 12 15.9998 8.00003C15.9998 7.46364 15.9446 6.94004 15.8442 6.43325Z" fill="#7472E0"/>
</svg>
