<svg width="14" height="14" viewBox="0 0 14 14" fill="none" xmlns="http://www.w3.org/2000/svg">
<path fill-rule="evenodd" clip-rule="evenodd" d="M3.77403 1.16778L3.78978 1.16836C4.09545 1.19403 4.36087 1.3457 4.60295 1.58253C5.06378 2.03228 6.05253 3.3442 6.1272 3.70178C6.20945 4.1002 6.12137 4.3592 5.8577 4.81653L5.79412 4.9297C5.67337 5.1502 5.6547 5.2412 5.69203 5.34561C6.2672 6.75261 7.24837 7.73378 8.63962 8.30195C8.77087 8.34978 8.87062 8.32236 9.14887 8.16253L9.2947 8.08086C9.68553 7.86561 9.93345 7.79795 10.2998 7.87436C10.6556 7.94845 11.9681 8.93778 12.4173 9.39803C12.6541 9.64011 12.8058 9.90553 12.8326 10.2316C12.8606 11.0232 11.8946 12.1379 11.3054 12.4734C10.6346 12.9529 9.7847 12.9447 8.83095 12.5008C6.3372 11.463 2.52278 7.67311 1.50603 5.18228L1.44537 5.04286C1.0592 4.12061 1.06795 3.32378 1.51012 2.72295C1.91378 2.05445 3.0017 1.13161 3.77403 1.16778ZM3.72737 2.02061L3.67545 2.02295C3.27878 2.07545 2.48428 2.76028 2.21945 3.19545L2.17395 3.2637C1.94587 3.63528 1.97212 4.1457 2.28945 4.84453L2.35012 4.98628C3.37445 7.28461 6.91995 10.7811 9.17512 11.7197L9.29878 11.7751C9.95095 12.0516 10.445 12.0394 10.8446 11.7559L10.8744 11.7366C10.998 11.6509 11.2833 11.3919 11.5032 11.1381C11.8118 10.7823 11.9868 10.4556 11.9809 10.2818C11.9751 10.2077 11.9174 10.1074 11.8071 9.99419C11.4734 9.65236 10.2589 8.7377 10.1248 8.7097C9.9982 8.68345 9.89378 8.71903 9.60911 8.88236L9.4662 8.96286C9.0462 9.1892 8.75045 9.24986 8.33278 9.0982C6.71345 8.43728 5.5637 7.28811 4.89578 5.65245C4.73828 5.21495 4.82287 4.90578 5.0982 4.42628L5.16353 4.31078C5.28837 4.08503 5.3152 3.98936 5.29187 3.87561C5.26328 3.74086 4.3492 2.52753 4.00678 2.19328C3.89362 2.08245 3.79387 2.02528 3.7192 2.01945L3.72737 2.02061Z" fill="#7472E0"/>
</svg>
