<svg width="16" height="16" viewBox="0 0 16 16" fill="none" xmlns="http://www.w3.org/2000/svg">
<path d="M15.8441 6.43308H15.1997V6.39988H7.99985V9.59982H12.521C11.8614 11.4626 10.089 12.7998 7.99985 12.7998C5.3491 12.7998 3.19994 10.6506 3.19994 7.99985C3.19994 5.3491 5.3491 3.19994 7.99985 3.19994C9.22343 3.19994 10.3366 3.66153 11.1842 4.41552L13.4469 2.15276C12.0182 0.821185 10.107 0 7.99985 0C3.58193 0 0 3.58193 0 7.99985C0 12.4178 3.58193 15.9997 7.99985 15.9997C12.4178 15.9997 15.9997 12.4178 15.9997 7.99985C15.9997 7.46346 15.9445 6.93987 15.8441 6.43308Z" fill="#FFC107"/>
<path d="M0.921854 4.27632L3.5502 6.20388C4.26139 4.44312 5.98376 3.19994 7.99932 3.19994C9.2229 3.19994 10.3361 3.66153 11.1837 4.41552L13.4464 2.15276C12.0176 0.821185 10.1065 0 7.99932 0C4.92658 0 2.26183 1.73477 0.921854 4.27632Z" fill="#FF3D00"/>
<path d="M7.9999 16C10.0663 16 11.9438 15.2092 13.3634 13.9232L10.8874 11.8281C10.0843 12.4365 9.08588 12.8001 7.9999 12.8001C5.91914 12.8001 4.15237 11.4733 3.48678 9.62173L0.878032 11.6317C2.20201 14.2224 4.89076 16 7.9999 16Z" fill="#4CAF50"/>
<path d="M15.8441 6.43308H15.1997V6.39988H7.99982V9.59982H12.5209C12.2041 10.4946 11.6285 11.2662 10.8862 11.8282C10.8866 11.8278 10.887 11.8278 10.8874 11.8274L13.3633 13.9225C13.1881 14.0817 15.9997 11.9998 15.9997 7.99985C15.9997 7.46346 15.9445 6.93987 15.8441 6.43308Z" fill="#8F72E0" fill-opacity="0.62"/>
</svg>
