<svg width="14" height="14" viewBox="0 0 14 14" fill="none" xmlns="http://www.w3.org/2000/svg">
<path fill-rule="evenodd" clip-rule="evenodd" d="M4.08342 9.33329H9.91675C10.6903 9.33329 11.4322 9.64058 11.9791 10.1876C12.5261 10.7345 12.8334 11.4764 12.8334 12.25C12.8333 12.3986 12.7763 12.5416 12.6743 12.6498C12.5722 12.7579 12.4327 12.8229 12.2843 12.8316C12.1358 12.8404 11.9897 12.7921 11.8757 12.6966C11.7617 12.6012 11.6884 12.4658 11.6708 12.3182L11.6638 12.1473C11.6387 11.7194 11.4574 11.3155 11.1543 11.0124C10.8512 10.7093 10.4473 10.528 10.0194 10.5029L9.91675 10.5H4.08342C3.61929 10.5 3.17417 10.6843 2.84598 11.0125C2.51779 11.3407 2.33341 11.7858 2.33341 12.25C2.33341 12.4047 2.27196 12.553 2.16256 12.6624C2.05316 12.7718 1.90479 12.8333 1.75008 12.8333C1.59537 12.8333 1.447 12.7718 1.3376 12.6624C1.22821 12.553 1.16675 12.4047 1.16675 12.25C1.16679 11.4984 1.45698 10.7758 1.9768 10.2329C2.49662 9.69006 3.20594 9.36883 3.95683 9.33621L4.08342 9.33329H9.91675H4.08342ZM7.00008 1.16663C7.45971 1.16663 7.91483 1.25716 8.33947 1.43305C8.76411 1.60894 9.14995 1.86675 9.47496 2.19175C9.79996 2.51676 10.0578 2.90259 10.2337 3.32723C10.4096 3.75187 10.5001 4.207 10.5001 4.66663C10.5001 5.12625 10.4096 5.58138 10.2337 6.00602C10.0578 6.43066 9.79996 6.81649 9.47496 7.1415C9.14995 7.46651 8.76411 7.72431 8.33947 7.9002C7.91483 8.0761 7.45971 8.16663 7.00008 8.16663C6.07182 8.16663 5.18159 7.79788 4.52521 7.1415C3.86883 6.48512 3.50008 5.59488 3.50008 4.66663C3.50008 3.73837 3.86883 2.84813 4.52521 2.19175C5.18159 1.53537 6.07182 1.16663 7.00008 1.16663ZM7.00008 2.33329C6.38124 2.33329 5.78775 2.57913 5.35017 3.01671C4.91258 3.4543 4.66675 4.04779 4.66675 4.66663C4.66675 5.28546 4.91258 5.87896 5.35017 6.31654C5.78775 6.75413 6.38124 6.99996 7.00008 6.99996C7.61892 6.99996 8.21241 6.75413 8.65 6.31654C9.08758 5.87896 9.33342 5.28546 9.33342 4.66663C9.33342 4.04779 9.08758 3.4543 8.65 3.01671C8.21241 2.57913 7.61892 2.33329 7.00008 2.33329Z" fill="#7472E0"/>
</svg>
