<svg width="16" height="16" viewBox="0 0 16 16" fill="none" xmlns="http://www.w3.org/2000/svg">
<path fill-rule="evenodd" clip-rule="evenodd" d="M2.33351 9.19137V9.04537C2.3554 8.61255 2.49409 8.19373 2.73484 7.83337C3.13528 7.40093 3.41045 6.86765 3.53084 6.29071C3.53084 5.84671 3.53084 5.39604 3.56951 4.95137C3.76951 2.81204 5.88484 1.33337 7.97351 1.33337H8.02551C10.1142 1.33337 12.2295 2.81204 12.4368 4.95137C12.4755 5.39604 12.4368 5.84671 12.4688 6.29071C12.5907 6.86876 12.8654 7.40356 13.2642 7.83937C13.5075 8.19804 13.6462 8.61537 13.6655 9.04604V9.18537C13.6802 9.76537 13.4802 10.3314 13.1028 10.7787C12.6002 11.3032 11.9244 11.6276 11.2008 11.692C9.07084 11.9207 6.92151 11.9207 4.79151 11.692C4.0687 11.6248 3.39393 11.3007 2.88951 10.7787C2.51914 10.334 2.32171 9.77063 2.33351 9.19204V9.19137Z" stroke="#7472E0" stroke-linecap="round" stroke-linejoin="round"/>
<path d="M6.37012 13.9014C6.70815 14.3199 7.19656 14.5894 7.73083 14.6523C8.2651 14.7153 8.80278 14.5666 9.22879 14.238C9.35945 14.1407 9.47678 14.0274 9.57812 13.9014" stroke="#7472E0" stroke-linecap="round" stroke-linejoin="round"/>
</svg>
