<svg width="13" height="13" viewBox="0 0 13 13" fill="none" xmlns="http://www.w3.org/2000/svg">
<path fill-rule="evenodd" clip-rule="evenodd" d="M6.30864 1.10135C3.44343 1.0914 1.11282 3.35477 1.10308 6.15737C1.09335 8.95889 3.40818 11.2389 6.27339 11.2489C7.49872 11.2532 8.62671 10.8414 9.51708 10.1493L11.1977 11.8004L11.2423 11.8383C11.3985 11.9522 11.6204 11.9401 11.7628 11.8013C11.7998 11.7655 11.8293 11.7226 11.8494 11.6752C11.8695 11.6278 11.8799 11.5769 11.88 11.5254C11.8801 11.4739 11.8698 11.4229 11.8498 11.3754C11.8299 11.328 11.8006 11.285 11.7637 11.2491L10.103 9.61744C10.9822 8.69353 11.4747 7.46828 11.4795 6.19288C11.4892 3.3919 9.1744 1.11131 6.30918 1.10135L6.30864 1.10135ZM6.30593 1.88297C8.73013 1.89139 10.6888 3.81988 10.6806 6.1901C10.6724 8.56087 8.70085 10.4757 6.27664 10.4673C3.85244 10.4589 1.89374 8.52983 1.90197 6.15961C1.91021 3.78938 3.88172 1.87455 6.30593 1.88297Z" fill="#7472E0"/>
</svg>
