<svg width="14" height="14" viewBox="0 0 14 14" fill="none" xmlns="http://www.w3.org/2000/svg">
<path fill-rule="evenodd" clip-rule="evenodd" d="M6.60969 1.17896C7.27481 1.17897 7.91437 1.43516 8.39558 1.89431C8.87679 2.35347 9.16267 2.98032 9.19386 3.64471L9.19678 3.76604V4.31029C9.19674 4.42114 9.15463 4.52784 9.07896 4.60883C9.00328 4.68983 8.89969 4.73908 8.7891 4.74664C8.67851 4.75419 8.56917 4.71949 8.48318 4.64954C8.3972 4.57958 8.34097 4.4796 8.32586 4.36979L8.32178 4.31029V3.76604C8.32178 3.32933 8.15491 2.90913 7.8553 2.59141C7.55568 2.27368 7.14598 2.08246 6.71003 2.05687L6.60969 2.05396H3.76594C3.32934 2.0541 2.90928 2.22104 2.59168 2.52064C2.27408 2.82023 2.08295 3.22985 2.05736 3.66571L2.05444 3.76604V10.2585C2.05443 10.6952 2.22122 11.1153 2.52071 11.433C2.8202 11.7507 3.22976 11.942 3.66561 11.9677L3.76594 11.9712H6.61553C7.05069 11.9712 7.46941 11.805 7.78604 11.5064C8.10267 11.2079 8.29327 10.7997 8.31886 10.3653L8.32178 10.2655V9.71487C8.32196 9.60407 8.36417 9.49747 8.43989 9.41659C8.51561 9.3357 8.6192 9.28656 8.72975 9.27908C8.84029 9.2716 8.94956 9.30635 9.03548 9.3763C9.12141 9.44625 9.17759 9.54619 9.19269 9.65596L9.19678 9.71487V10.2655C9.19651 10.9282 8.94137 11.5654 8.4842 12.0452C8.02704 12.525 7.40286 12.8105 6.74094 12.8427L6.61553 12.8462H3.76594C3.10082 12.8462 2.46126 12.59 1.98006 12.1308C1.49885 11.6717 1.21297 11.0448 1.18178 10.3805L1.17944 10.2585V3.76662C1.17945 3.10169 1.43547 2.4623 1.89438 1.98112C2.35329 1.49995 2.97985 1.21394 3.64403 1.18246L3.76594 1.17954H6.60969V1.17896ZM13.0246 6.69671C13.0676 6.73764 13.1018 6.78692 13.125 6.84152C13.1483 6.89612 13.1602 6.9549 13.16 7.01425C13.1598 7.0736 13.1474 7.13229 13.1238 7.18672C13.1001 7.24114 13.0656 7.29017 13.0223 7.33079L11.3224 9.02421C11.2441 9.1019 11.1393 9.14712 11.029 9.1508C10.9187 9.15448 10.8111 9.11635 10.7278 9.04406C10.6444 8.97176 10.5914 8.87064 10.5795 8.76095C10.5675 8.65125 10.5974 8.54109 10.6633 8.45254L10.7053 8.40412L11.6619 7.45037H5.69794C5.58715 7.45019 5.48054 7.40798 5.39966 7.33226C5.31877 7.25654 5.26963 7.15295 5.26215 7.0424C5.25468 6.93186 5.28942 6.82259 5.35937 6.73667C5.42932 6.65074 5.52926 6.59456 5.63903 6.57946L5.69794 6.57537H11.6631L10.7053 5.62279C10.6309 5.54883 10.5855 5.45058 10.5775 5.34596C10.5694 5.24135 10.5993 5.13733 10.6615 5.05287L10.7041 5.00387C10.778 4.9296 10.8762 4.88434 10.9807 4.87631C11.0851 4.86828 11.189 4.89802 11.2734 4.96012L11.3224 5.00271L13.0246 6.69729V6.69671Z" fill="#7472E0"/>
</svg>
